<mxfile host="app.diagrams.net" agent="Mozilla/5.0 (Windows NT 10.0; Win64; x64) AppleWebKit/537.36 (KHTML, like Gecko) Chrome/132.0.0.0 Safari/537.36 Edg/132.0.0.0" version="26.0.4">
  <diagram name="Page-1" id="mVO1moJ8ojE2ls1kbr3T">
    <mxGraphModel dx="2954" dy="1187" grid="1" gridSize="10" guides="1" tooltips="1" connect="1" arrows="1" fold="1" page="1" pageScale="1" pageWidth="850" pageHeight="1100" math="0" shadow="0">
      <root>
        <mxCell id="0" />
        <mxCell id="1" parent="0" />
        <mxCell id="5P7uHEidoQzMQLnV7BrI-17" style="edgeStyle=orthogonalEdgeStyle;rounded=0;orthogonalLoop=1;jettySize=auto;html=1;" edge="1" parent="1" source="5P7uHEidoQzMQLnV7BrI-2" target="5P7uHEidoQzMQLnV7BrI-14">
          <mxGeometry relative="1" as="geometry" />
        </mxCell>
        <mxCell id="5P7uHEidoQzMQLnV7BrI-2" value="Rendered prompt" style="strokeWidth=2;html=1;shape=mxgraph.flowchart.document2;whiteSpace=wrap;size=0.25;" vertex="1" parent="1">
          <mxGeometry x="200" y="250" width="120" height="60" as="geometry" />
        </mxCell>
        <mxCell id="5P7uHEidoQzMQLnV7BrI-9" style="edgeStyle=orthogonalEdgeStyle;rounded=0;orthogonalLoop=1;jettySize=auto;html=1;" edge="1" parent="1" source="5P7uHEidoQzMQLnV7BrI-3" target="5P7uHEidoQzMQLnV7BrI-4">
          <mxGeometry relative="1" as="geometry" />
        </mxCell>
        <mxCell id="5P7uHEidoQzMQLnV7BrI-3" value="Call LLM" style="rounded=1;whiteSpace=wrap;html=1;absoluteArcSize=1;arcSize=14;strokeWidth=2;" vertex="1" parent="1">
          <mxGeometry x="365" y="360" width="100" height="100" as="geometry" />
        </mxCell>
        <mxCell id="5P7uHEidoQzMQLnV7BrI-10" style="edgeStyle=orthogonalEdgeStyle;rounded=0;orthogonalLoop=1;jettySize=auto;html=1;entryX=0;entryY=0.5;entryDx=0;entryDy=0;" edge="1" parent="1" source="5P7uHEidoQzMQLnV7BrI-4" target="5P7uHEidoQzMQLnV7BrI-5">
          <mxGeometry relative="1" as="geometry" />
        </mxCell>
        <mxCell id="5P7uHEidoQzMQLnV7BrI-11" value="tool_call" style="edgeLabel;html=1;align=center;verticalAlign=middle;resizable=0;points=[];" vertex="1" connectable="0" parent="5P7uHEidoQzMQLnV7BrI-10">
          <mxGeometry x="0.0545" y="3" relative="1" as="geometry">
            <mxPoint y="-7" as="offset" />
          </mxGeometry>
        </mxCell>
        <mxCell id="5P7uHEidoQzMQLnV7BrI-19" style="edgeStyle=orthogonalEdgeStyle;rounded=0;orthogonalLoop=1;jettySize=auto;html=1;entryX=0.5;entryY=0;entryDx=0;entryDy=0;entryPerimeter=0;" edge="1" parent="1" source="5P7uHEidoQzMQLnV7BrI-4" target="5P7uHEidoQzMQLnV7BrI-21">
          <mxGeometry relative="1" as="geometry">
            <mxPoint x="415" y="640" as="targetPoint" />
          </mxGeometry>
        </mxCell>
        <mxCell id="5P7uHEidoQzMQLnV7BrI-4" value="Response&lt;div&gt;type&lt;/div&gt;" style="strokeWidth=2;html=1;shape=mxgraph.flowchart.decision;whiteSpace=wrap;" vertex="1" parent="1">
          <mxGeometry x="365" y="490" width="100" height="100" as="geometry" />
        </mxCell>
        <mxCell id="5P7uHEidoQzMQLnV7BrI-12" style="edgeStyle=orthogonalEdgeStyle;rounded=0;orthogonalLoop=1;jettySize=auto;html=1;entryX=1;entryY=0.5;entryDx=0;entryDy=0;exitX=0.5;exitY=0;exitDx=0;exitDy=0;" edge="1" parent="1" source="5P7uHEidoQzMQLnV7BrI-5" target="5P7uHEidoQzMQLnV7BrI-14">
          <mxGeometry relative="1" as="geometry" />
        </mxCell>
        <mxCell id="5P7uHEidoQzMQLnV7BrI-13" value="tool response" style="edgeLabel;html=1;align=center;verticalAlign=middle;resizable=0;points=[];" vertex="1" connectable="0" parent="5P7uHEidoQzMQLnV7BrI-12">
          <mxGeometry x="0.3532" y="-1" relative="1" as="geometry">
            <mxPoint x="-21" y="-19" as="offset" />
          </mxGeometry>
        </mxCell>
        <mxCell id="5P7uHEidoQzMQLnV7BrI-5" value="Call function" style="rounded=1;whiteSpace=wrap;html=1;absoluteArcSize=1;arcSize=14;strokeWidth=2;" vertex="1" parent="1">
          <mxGeometry x="570" y="490" width="100" height="100" as="geometry" />
        </mxCell>
        <mxCell id="5P7uHEidoQzMQLnV7BrI-15" style="edgeStyle=orthogonalEdgeStyle;rounded=0;orthogonalLoop=1;jettySize=auto;html=1;entryX=0.5;entryY=0;entryDx=0;entryDy=0;" edge="1" parent="1" source="5P7uHEidoQzMQLnV7BrI-6" target="5P7uHEidoQzMQLnV7BrI-14">
          <mxGeometry relative="1" as="geometry" />
        </mxCell>
        <mxCell id="5P7uHEidoQzMQLnV7BrI-6" value="Start" style="strokeWidth=2;html=1;shape=mxgraph.flowchart.start_1;whiteSpace=wrap;" vertex="1" parent="1">
          <mxGeometry x="365" y="140" width="100" height="60" as="geometry" />
        </mxCell>
        <mxCell id="5P7uHEidoQzMQLnV7BrI-16" style="edgeStyle=orthogonalEdgeStyle;rounded=0;orthogonalLoop=1;jettySize=auto;html=1;" edge="1" parent="1" source="5P7uHEidoQzMQLnV7BrI-14" target="5P7uHEidoQzMQLnV7BrI-3">
          <mxGeometry relative="1" as="geometry" />
        </mxCell>
        <mxCell id="5P7uHEidoQzMQLnV7BrI-14" value="Build chat&lt;div&gt;history&lt;/div&gt;" style="rounded=1;whiteSpace=wrap;html=1;absoluteArcSize=1;arcSize=14;strokeWidth=2;" vertex="1" parent="1">
          <mxGeometry x="365" y="230" width="100" height="100" as="geometry" />
        </mxCell>
        <mxCell id="5P7uHEidoQzMQLnV7BrI-21" value="Final response" style="strokeWidth=2;html=1;shape=mxgraph.flowchart.terminator;whiteSpace=wrap;" vertex="1" parent="1">
          <mxGeometry x="365" y="640" width="100" height="60" as="geometry" />
        </mxCell>
      </root>
    </mxGraphModel>
  </diagram>
</mxfile>
